<?xml version="1.0" standalone="no"?>
<!DOCTYPE svg PUBLIC "-//W3C//DTD SVG 20010904//EN"
 "http://www.w3.org/TR/2001/REC-SVG-20010904/DTD/svg10.dtd">
<svg version="1.0" xmlns="http://www.w3.org/2000/svg"
 width="700.000000pt" height="700.000000pt" viewBox="0 0 700.000000 700.000000"
 preserveAspectRatio="xMidYMid meet">
<metadata>
Created by potrace 1.14, written by Peter Selinger 2001-2017
</metadata>
<g transform="translate(0.000000,700.000000) scale(0.100000,-0.100000)"
fill="#000000" stroke="none">
<path d="M2309 6716 c-2 -2 -31 -6 -64 -9 -196 -19 -406 -95 -582 -210 -94
-62 -134 -96 -243 -207 -52 -53 -124 -118 -160 -145 -127 -95 -299 -287 -379
-426 -35 -60 -183 -339 -206 -389 -108 -230 -159 -486 -159 -805 l-1 -200 -85
0 c-69 0 -94 -4 -132 -23 -145 -71 -239 -266 -241 -497 -1 -123 17 -266 42
-326 5 -13 31 -78 56 -144 64 -164 146 -327 203 -405 108 -146 323 -282 461
-293 50 -4 41 15 90 -197 45 -192 128 -404 197 -507 28 -41 576 -598 705 -717
77 -72 274 -204 384 -258 164 -81 246 -99 434 -99 219 0 321 23 471 103 86 46
235 150 300 210 14 13 46 40 70 62 208 180 505 468 601 581 19 22 42 49 52 60
81 89 189 260 221 352 21 60 76 313 79 361 1 28 22 3 22 -26 0 -38 6 -39 51
-12 18 12 41 22 51 24 10 2 37 7 60 11 71 11 161 87 275 230 125 157 189 290
243 500 15 55 42 154 61 220 41 141 52 258 34 366 -30 187 -88 292 -194 347
-67 35 -155 37 -322 7 l-31 -6 -3 148 c-2 81 -4 236 -5 343 -1 199 -3 218 -36
352 -31 126 -134 372 -202 483 -81 133 -130 201 -186 256 -36 36 -107 108
-157 160 -49 52 -128 123 -175 158 -46 35 -106 91 -133 124 -81 101 -153 162
-263 223 -138 78 -370 150 -576 179 -70 10 -198 26 -251 31 -62 7 -372 15
-377 10z m786 -550 c325 -73 543 -183 741 -372 116 -112 280 -337 316 -434 27
-71 85 -312 112 -465 3 -16 8 -41 11 -55 6 -29 22 -128 29 -180 3 -19 8 -53
11 -75 3 -22 7 -53 10 -70 2 -16 7 -55 10 -85 3 -30 8 -70 11 -87 4 -18 4 -33
0 -33 -17 0 -61 51 -82 97 -41 85 -146 160 -275 197 -105 29 -184 35 -494 38
-388 3 -501 -21 -655 -135 -61 -45 -89 -74 -127 -129 -30 -44 -50 -52 -105
-43 -30 5 -49 17 -67 39 -137 167 -286 244 -506 262 -197 16 -622 4 -737 -22
-136 -30 -257 -103 -305 -185 -10 -16 -20 -29 -24 -29 -4 0 -10 21 -13 48 -4
26 -9 61 -11 77 -2 17 -9 65 -15 107 -6 42 -8 97 -5 122 3 25 7 67 10 94 12
103 68 353 101 452 41 123 103 244 181 352 55 76 176 200 242 246 162 116 327
192 446 206 66 8 213 18 440 31 174 9 269 16 310 20 22 2 72 7 110 11 39 3 71
7 73 9 6 6 226 -2 257 -9z m-1130 -1730 c61 -3 135 -10 165 -17 116 -24 250
-136 250 -208 0 -47 -68 -248 -116 -342 -82 -163 -144 -217 -249 -217 -27 0
-166 -1 -307 -2 l-257 -2 -52 28 c-72 39 -150 112 -181 171 -39 72 -48 117
-64 308 -3 44 -7 82 -7 85 -5 24 20 89 41 108 66 62 163 82 427 89 116 3 212
6 213 8 2 2 9 2 15 0 7 -2 62 -6 122 -9z m1650 0 c288 -5 386 -27 454 -100 21
-22 24 -36 24 -93 1 -93 -11 -228 -25 -288 -24 -111 -102 -212 -212 -274 l-55
-32 -298 1 c-164 0 -311 3 -327 6 -67 12 -132 87 -201 229 -44 90 -103 256
-109 307 -6 46 28 103 86 146 95 71 151 88 313 99 50 3 92 7 93 9 2 1 9 1 15
-1 7 -2 116 -6 242 -9z m-951 -252 c3 -9 6 -26 6 -39 0 -39 76 -255 125 -355
96 -194 205 -305 327 -329 29 -6 197 -12 373 -14 367 -4 367 -4 500 84 179
120 271 280 288 497 3 35 6 65 8 67 2 2 18 -2 35 -10 l30 -12 -4 -137 -4 -137
23 10 c13 6 89 29 168 51 79 23 154 48 168 57 24 16 122 43 156 43 25 0 38
-41 44 -140 5 -80 2 -97 -41 -251 -26 -91 -48 -176 -51 -188 -7 -35 -15 -59
-53 -156 -34 -89 -90 -173 -185 -280 l-44 -49 -48 42 c-55 48 -115 69 -219 77
-39 3 -80 8 -91 10 -29 6 -40 -6 -41 -45 -1 -72 -14 -217 -24 -275 -6 -33 -13
-82 -16 -110 -4 -27 -8 -53 -10 -56 -1 -3 -6 -28 -10 -55 -14 -109 -44 -199
-88 -265 -106 -159 -312 -376 -621 -653 -60 -55 -127 -115 -149 -134 -123
-112 -264 -200 -375 -237 -67 -22 -293 -28 -364 -9 -76 20 -188 77 -314 159
-104 69 -146 107 -454 418 -371 375 -378 383 -437 562 -33 99 -85 305 -101
400 -24 143 -27 152 -59 194 -36 49 -102 75 -171 68 -31 -3 -69 -12 -85 -21
-28 -14 -32 -14 -65 6 -64 39 -150 108 -175 141 -67 88 -203 402 -230 532 -13
65 -15 215 -3 265 14 55 40 100 59 100 48 0 172 -85 280 -193 54 -53 180 -186
327 -346 23 -24 43 -42 45 -40 2 2 1 24 -4 49 -4 25 -11 68 -14 95 -3 28 -9
70 -12 95 l-6 45 45 -55 c26 -30 52 -60 60 -66 42 -35 120 -86 177 -115 l65
-33 325 2 c179 1 345 4 370 8 172 23 322 209 431 533 21 65 42 139 45 165 7
45 7 46 44 46 25 0 40 -5 44 -16z"/>
<path d="M3428 4865 c-2 -1 -41 -5 -88 -8 -47 -3 -103 -11 -124 -17 -46 -14
-109 -72 -123 -115 -10 -30 -7 -59 5 -51 4 2 30 7 57 10 59 7 186 25 305 42
14 1 79 6 145 10 112 6 125 4 200 -20 44 -15 89 -31 100 -36 39 -16 60 -22
105 -27 l44 -5 -69 55 c-129 100 -204 147 -238 147 -55 1 -250 11 -284 14 -18
2 -33 3 -35 1z"/>
<path d="M1767 4834 c-1 -1 -57 -4 -125 -8 -82 -4 -134 -11 -154 -22 -29 -15
-127 -82 -138 -94 -3 -3 -25 -21 -50 -40 -25 -18 -49 -37 -55 -42 -21 -19 82
4 197 43 101 35 133 41 192 40 75 -1 80 -2 276 -27 165 -21 167 -21 222 -29
72 -11 82 -4 63 42 -31 74 -93 116 -190 128 -48 6 -233 13 -238 9z"/>
<path d="M2813 3027 c-23 -7 -33 -16 -33 -30 0 -14 5 -17 17 -13 40 16 87 16
147 1 69 -17 96 -14 76 10 -23 27 -155 48 -207 32z"/>
<path d="M2328 3010 c-34 -10 -54 -22 -56 -33 -4 -21 1 -21 69 -1 38 12 72 14
116 10 66 -7 81 3 41 26 -33 18 -108 17 -170 -2z"/>
<path d="M2437 2425 c-1 -1 -42 -5 -92 -9 -49 -3 -101 -8 -115 -11 -27 -5 -72
-10 -190 -20 -41 -4 -79 -10 -84 -15 -16 -16 6 -30 42 -25 20 2 71 6 112 10
74 6 92 8 200 22 74 10 729 9 914 -2 143 -8 148 -7 144 11 -2 13 -12 19 -33
20 -17 1 -91 5 -165 9 -118 7 -726 15 -733 10z"/>
</g>
</svg>
